<?xml version="1.0" encoding="UTF-8" standalone="no"?>
<!DOCTYPE svg PUBLIC "-//W3C//DTD SVG 1.1//EN"
 "http://www.w3.org/Graphics/SVG/1.1/DTD/svg11.dtd">
<!-- Generated by graphviz version 8.1.0 (20230707.0739)
 -->
<!-- Title: Principal Mapper Visualization: 308865918923 Pages: 1 -->
<svg width="706pt" height="367pt"
 viewBox="0.00 0.00 706.00 367.00" xmlns="http://www.w3.org/2000/svg" xmlns:xlink="http://www.w3.org/1999/xlink">
<g id="graph0" class="graph" transform="scale(1 1) rotate(0) translate(4 363)">
<title>Principal Mapper Visualization: 308865918923</title>
<polygon fill="white" stroke="none" points="-4,4 -4,-363 702,-363 702,4 -4,4"/>
<!-- user/terraform -->
<g id="node1" class="node">
<title>user/terraform</title>
<polygon fill="#bfefff" stroke="black" points="360.75,-131 266,-131 266,-95 360.75,-95 360.75,-131"/>
<text text-anchor="middle" x="313.38" y="-107.58" font-family="Times New Roman,serif" font-size="14.00">user/terraform</text>
</g>
<!-- role/aws&#45;elasticbeanstalk&#45;ec2&#45;role -->
<g id="node2" class="node">
<title>role/aws&#45;elasticbeanstalk&#45;ec2&#45;role</title>
<polygon fill="white" stroke="black" points="261.36,-36 58.61,-36 58.61,0 261.36,0 261.36,-36"/>
<text text-anchor="middle" x="159.98" y="-12.58" font-family="Times New Roman,serif" font-size="14.00">role/aws&#45;elasticbeanstalk&#45;ec2&#45;role</text>
</g>
<!-- role/AWSServiceRoleForAmazonEKS -->
<g id="node3" class="node">
<title>role/AWSServiceRoleForAmazonEKS</title>
<polygon fill="white" stroke="black" points="669.75,-131 437,-131 437,-95 669.75,-95 669.75,-131"/>
<text text-anchor="middle" x="553.38" y="-107.58" font-family="Times New Roman,serif" font-size="14.00">role/AWSServiceRoleForAmazonEKS</text>
</g>
<!-- role/AWSServiceRoleForAmazonEKSNodegroup -->
<g id="node4" class="node">
<title>role/AWSServiceRoleForAmazonEKSNodegroup</title>
<polygon fill="white" stroke="black" points="296.5,-272.68 0,-272.68 0,-236.68 296.5,-236.68 296.5,-272.68"/>
<text text-anchor="middle" x="148.25" y="-249.25" font-family="Times New Roman,serif" font-size="14.00">role/AWSServiceRoleForAmazonEKSNodegroup</text>
</g>
<!-- role/AWSServiceRoleForAmazonEKSNodegroup&#45;&gt;role/aws&#45;elasticbeanstalk&#45;ec2&#45;role -->
<g id="edge1" class="edge">
<title>role/AWSServiceRoleForAmazonEKSNodegroup&#45;&gt;role/aws&#45;elasticbeanstalk&#45;ec2&#45;role</title>
<path fill="none" stroke="black" d="M149.15,-236.5C151.17,-195.71 156.08,-96.62 158.54,-47.13"/>
<polygon fill="black" stroke="black" points="162.08,-47.4 159.08,-37.24 155.09,-47.05 162.08,-47.4"/>
</g>
<!-- role/EKSNodeGroupRole -->
<g id="node10" class="node">
<title>role/EKSNodeGroupRole</title>
<polygon fill="white" stroke="black" points="465.25,-285.4 304.5,-285.4 304.5,-249.4 465.25,-249.4 465.25,-285.4"/>
<text text-anchor="middle" x="384.88" y="-261.98" font-family="Times New Roman,serif" font-size="14.00">role/EKSNodeGroupRole</text>
</g>
<!-- role/AWSServiceRoleForAmazonEKSNodegroup&#45;&gt;role/EKSNodeGroupRole -->
<g id="edge3" class="edge">
<title>role/AWSServiceRoleForAmazonEKSNodegroup&#45;&gt;role/EKSNodeGroupRole</title>
<path fill="none" stroke="black" d="M296.76,-262.66C296.92,-262.67 297.08,-262.68 297.23,-262.69"/>
<polygon fill="black" stroke="black" points="293.05,-266.02 303.22,-263.06 293.43,-259.03 293.05,-266.02"/>
</g>
<!-- role/AWSServiceRoleForAutoScaling -->
<g id="node5" class="node">
<title>role/AWSServiceRoleForAutoScaling</title>
<polygon fill="white" stroke="black" points="510.73,-48.73 282.48,-48.73 282.48,-12.73 510.73,-12.73 510.73,-48.73"/>
<text text-anchor="middle" x="396.61" y="-25.3" font-family="Times New Roman,serif" font-size="14.00">role/AWSServiceRoleForAutoScaling</text>
</g>
<!-- role/AWSServiceRoleForAutoScaling&#45;&gt;role/aws&#45;elasticbeanstalk&#45;ec2&#45;role -->
<g id="edge2" class="edge">
<title>role/AWSServiceRoleForAutoScaling&#45;&gt;role/aws&#45;elasticbeanstalk&#45;ec2&#45;role</title>
<path fill="none" stroke="black" d="M282.11,-24.57C278.9,-24.4 275.69,-24.22 272.48,-24.05"/>
<polygon fill="black" stroke="black" points="272.79,-20.51 262.62,-23.47 272.42,-27.5 272.79,-20.51"/>
</g>
<!-- role/AWSServiceRoleForAutoScaling&#45;&gt;role/EKSNodeGroupRole -->
<g id="edge4" class="edge">
<title>role/AWSServiceRoleForAutoScaling&#45;&gt;role/EKSNodeGroupRole</title>
<path fill="none" stroke="black" d="M395.71,-48.9C393.68,-89.69 388.77,-188.78 386.32,-238.27"/>
<polygon fill="black" stroke="black" points="382.78,-238 385.78,-248.16 389.77,-238.35 382.78,-238"/>
</g>
<!-- role/AWSServiceRoleForElasticLoadBalancing -->
<g id="node6" class="node">
<title>role/AWSServiceRoleForElasticLoadBalancing</title>
<polygon fill="white" stroke="black" points="698,-207 418,-207 418,-171 698,-171 698,-207"/>
<text text-anchor="middle" x="558" y="-183.58" font-family="Times New Roman,serif" font-size="14.00">role/AWSServiceRoleForElasticLoadBalancing</text>
</g>
<!-- role/AWSServiceRoleForSupport -->
<g id="node7" class="node">
<title>role/AWSServiceRoleForSupport</title>
<polygon fill="white" stroke="black" points="395.75,-359 190,-359 190,-323 395.75,-323 395.75,-359"/>
<text text-anchor="middle" x="292.88" y="-335.57" font-family="Times New Roman,serif" font-size="14.00">role/AWSServiceRoleForSupport</text>
</g>
<!-- role/AWSServiceRoleForTrustedAdvisor -->
<g id="node8" class="node">
<title>role/AWSServiceRoleForTrustedAdvisor</title>
<polygon fill="white" stroke="black" points="685.5,-359 437,-359 437,-323 685.5,-323 685.5,-359"/>
<text text-anchor="middle" x="561.25" y="-335.57" font-family="Times New Roman,serif" font-size="14.00">role/AWSServiceRoleForTrustedAdvisor</text>
</g>
<!-- role/eksClusterRole -->
<g id="node9" class="node">
<title>role/eksClusterRole</title>
<polygon fill="white" stroke="black" points="353.5,-207 228,-207 228,-171 353.5,-171 353.5,-207"/>
<text text-anchor="middle" x="290.75" y="-183.58" font-family="Times New Roman,serif" font-size="14.00">role/eksClusterRole</text>
</g>
</g>
</svg>
